<svg width="37" height="37" viewBox="0 0 37 37" fill="none" xmlns="http://www.w3.org/2000/svg">
<path d="M31.3039 31.307C38.377 24.2339 38.377 12.7661 31.3039 5.69297C24.2308 -1.38016 12.763 -1.38015 5.68984 5.69297C-1.38329 12.7661 -1.38329 24.2339 5.68984 31.307C12.763 38.3802 24.2308 38.3802 31.3039 31.307Z" fill="#38BFF2"/>
<path d="M18.5006 32.7604C26.3764 32.7604 32.761 26.3758 32.761 18.5C32.761 10.6242 26.3764 4.23962 18.5006 4.23962C10.6248 4.23962 4.24023 10.6242 4.24023 18.5C4.24023 26.3758 10.6248 32.7604 18.5006 32.7604Z" fill="white"/>
<path d="M18.5 0C8.29906 0 0 8.29906 0 18.5C0 28.7009 8.29906 37 18.5 37C28.7009 37 37 28.7009 37 18.5C37 8.29906 28.7009 0 18.5 0ZM18.5 36.2291C8.7242 36.2291 0.770857 28.2758 0.770857 18.5C0.770857 8.7242 8.7242 0.770857 18.5 0.770857C28.2758 0.770857 36.2291 8.7242 36.2291 18.5C36.2291 28.2758 28.2758 36.2291 18.5 36.2291Z" fill="#1A2E35"/>
<path d="M18.4994 3.85416C10.4237 3.85416 3.85352 10.4243 3.85352 18.5C3.85352 26.5757 10.4237 33.1459 18.4994 33.1459C26.5751 33.1459 33.1452 26.5757 33.1452 18.5C33.1452 10.4243 26.5751 3.85416 18.4994 3.85416ZM18.4994 32.375C10.8486 32.375 4.62437 26.1508 4.62437 18.5C4.62437 10.8493 10.8486 4.62501 18.4994 4.62501C26.1501 4.62501 32.3744 10.8493 32.3744 18.5C32.3744 26.1508 26.1501 32.375 18.4994 32.375Z" fill="#1A2E35"/>
<path d="M20.0428 10.1686H14.917C14.9105 10.1682 14.905 10.1648 14.8983 10.1648C14.6855 10.1648 14.5129 10.3374 14.5129 10.5502V10.5539V17.9239H13.0788C12.8659 17.9239 12.6934 18.0965 12.6934 18.3093C12.6934 18.5221 12.8659 18.6947 13.0788 18.6947H14.5129V20.3261H13.0788C12.8659 20.3261 12.6934 20.4987 12.6934 20.7115C12.6934 20.9243 12.8659 21.0969 13.0788 21.0969H14.5129V26.4496C14.5129 26.6625 14.6855 26.835 14.8983 26.835C15.1112 26.835 15.2837 26.6625 15.2837 26.4496V21.0969H22.2387C22.4515 21.0969 22.6241 20.9243 22.6241 20.7115C22.6241 20.4987 22.4515 20.3261 22.2387 20.3261H15.2838V18.6947H15.9335H19.7729C22.1366 18.6947 24.122 16.9727 24.2927 14.7745C24.2927 14.7743 24.2927 14.7743 24.2927 14.7743C24.4909 12.219 22.4736 10.1686 20.0428 10.1686ZM23.5242 14.7149V14.7146C23.3846 16.5143 21.7368 17.9239 19.7729 17.9239H15.9335H15.2838V10.9393H20.0428C22.0333 10.9394 23.6871 12.6163 23.5242 14.7149Z" fill="#1A2E35"/>
</svg>
