<svg width="42" height="37" viewBox="0 0 42 37" fill="none" xmlns="http://www.w3.org/2000/svg">
<path d="M0.5 6C0.5 2.96244 2.96243 0.5 6 0.5H26.0192C29.0568 0.5 31.5192 2.96243 31.5192 6V20.3269C31.5192 23.3645 29.0568 25.8269 26.0192 25.8269H13.4573C11.7817 25.8269 10.1305 26.2279 8.64155 26.9964L2.68796 30.0692C1.68961 30.5845 0.5 29.8598 0.5 28.7363V26.3269V6Z" fill="white" stroke="#263238"/>
<path d="M33.5776 8.53844H34.5586C37.8723 8.53844 40.5586 11.2247 40.5586 14.5384V31.5607V33.4776C40.5586 35.03 38.8669 35.9905 37.5338 35.195L33.8103 32.9733C32.261 32.0488 30.4904 31.5607 28.6862 31.5607H17.6866C15.7785 31.5607 14.2317 30.0138 14.2317 28.1057V28.1057" stroke="#263238"/>
<rect x="6.61523" y="8.03844" width="19.5" height="2.42308" rx="1.21154" fill="#38BFF2" stroke="#263238"/>
<rect x="6.61523" y="13.0192" width="15.2308" height="2.42308" rx="1.21154" fill="#38BFF2" stroke="#263238"/>
</svg>
