<svg width="44" height="44" viewBox="0 0 44 44" fill="none" xmlns="http://www.w3.org/2000/svg">
<path d="M39.1958 6.60368V38.7423C39.1958 39.5861 38.5127 40.2691 37.669 40.2691H6.76784C5.9241 40.2691 5.24107 39.5861 5.24107 38.7423V36.7414C4.41745 36.7414 3.67013 36.404 3.13173 35.8656C2.58534 35.3272 2.25586 34.5758 2.25586 33.7522H5.24107V6.60368C5.24107 5.75995 5.9241 5.07692 6.76784 5.07692H37.669C38.5128 5.07692 39.1958 5.75995 39.1958 6.60368Z" fill="white"/>
<path d="M5.35877 36.3846C3.77929 36.3846 3.00835 34.5043 2.82031 33.5641L33.5639 33.2821C34.1445 35.6043 35.4581 36.2945 36.2948 36.3846H36.6665C36.5594 36.398 36.4337 36.3996 36.2948 36.3846H5.35877Z" fill="#38BFF2"/>
<path d="M11.8291 16.9231C10.4974 16.9231 9.41406 18.0041 9.41406 19.3326C9.41406 20.6616 10.4974 21.7426 11.8291 21.7426C13.1577 21.7426 14.2386 20.6616 14.2386 19.3326C14.2386 18.0041 13.1577 16.9231 11.8291 16.9231Z" fill="#38BFF2"/>
<path d="M11.8291 16.9231C10.4974 16.9231 9.41406 18.0041 9.41406 19.3326C9.41406 20.6615 10.4974 21.7425 11.8291 21.7425C13.1577 21.7425 14.2386 20.6615 14.2386 19.3326C14.2386 18.0041 13.1577 16.9231 11.8291 16.9231ZM11.8291 20.9389C10.9406 20.9389 10.2177 20.2182 10.2177 19.3326C10.2177 18.447 10.9406 17.7266 11.8291 17.7266C12.7147 17.7266 13.4351 18.447 13.4351 19.3326C13.4351 20.2182 12.7147 20.9389 11.8291 20.9389Z" fill="#1A2E35"/>
<path d="M18.9658 16.9231C17.6341 16.9231 16.5508 18.0041 16.5508 19.3326C16.5508 20.6615 17.6341 21.7425 18.9658 21.7425C20.2946 21.7425 21.3755 20.6615 21.3755 19.3326C21.3756 18.0041 20.2946 16.9231 18.9658 16.9231Z" fill="#38BFF2"/>
<path d="M18.9658 16.9231C17.6341 16.9231 16.5508 18.0041 16.5508 19.3326C16.5508 20.6615 17.6341 21.7425 18.9658 21.7425C20.2946 21.7425 21.3755 20.6615 21.3755 19.3326C21.3756 18.0041 20.2946 16.9231 18.9658 16.9231ZM18.9658 20.9389C18.0773 20.9389 17.3544 20.2182 17.3544 19.3326C17.3544 18.447 18.0773 17.7266 18.9658 17.7266C19.8514 17.7266 20.572 18.447 20.572 19.3326C20.572 20.2182 19.8514 20.9389 18.9658 20.9389Z" fill="#1A2E35"/>
<path d="M26.1025 16.9713C24.7708 16.9713 23.6875 18.0524 23.6875 19.3809C23.6875 20.7098 24.7708 21.7908 26.1025 21.7908C27.4313 21.7908 28.5122 20.7098 28.5122 19.3809C28.5122 18.0524 27.4313 16.9713 26.1025 16.9713Z" fill="#38BFF2"/>
<path d="M26.1025 16.9231C24.7708 16.9231 23.6875 18.0041 23.6875 19.3326C23.6875 20.6615 24.7708 21.7425 26.1025 21.7425C27.4313 21.7425 28.5122 20.6615 28.5122 19.3326C28.5122 18.0041 27.4313 16.9231 26.1025 16.9231ZM26.1025 20.9389C25.214 20.9389 24.4911 20.2182 24.4911 19.3326C24.4911 18.447 25.214 17.7266 26.1025 17.7266C26.9881 17.7266 27.7087 18.447 27.7087 19.3326C27.7086 20.2182 26.9881 20.9389 26.1025 20.9389Z" fill="#1A2E35"/>
<path d="M33.2392 21.7425C34.568 21.7425 35.6489 20.6615 35.6489 19.3326C35.6489 18.004 34.5679 16.9231 33.2392 16.9231C31.9075 16.9231 30.8242 18.0041 30.8242 19.3326C30.8242 20.6615 31.9075 21.7425 33.2392 21.7425Z" fill="#38BFF2"/>
<path d="M33.2392 21.7425C34.568 21.7425 35.6489 20.6615 35.6489 19.3326C35.6489 18.004 34.5679 16.9231 33.2392 16.9231C31.9075 16.9231 30.8242 18.0041 30.8242 19.3326C30.8242 20.6615 31.9075 21.7425 33.2392 21.7425ZM33.2392 17.7267C34.1248 17.7267 34.8454 18.4471 34.8454 19.3327C34.8454 20.2183 34.1248 20.939 33.2392 20.939C32.3507 20.939 31.6278 20.2183 31.6278 19.3327C31.6278 18.447 32.3507 17.7267 33.2392 17.7267Z" fill="#1A2E35"/>
<path d="M11.8291 23.6923C10.4974 23.6923 9.41406 24.7733 9.41406 26.1023C9.41406 27.4308 10.4974 28.5118 11.8291 28.5118C13.1577 28.5118 14.2386 27.4308 14.2386 26.1023C14.2386 24.7733 13.1577 23.6923 11.8291 23.6923Z" fill="#38BFF2"/>
<path d="M11.8291 23.6923C10.4974 23.6923 9.41406 24.7733 9.41406 26.1023C9.41406 27.4308 10.4974 28.5118 11.8291 28.5118C13.1577 28.5118 14.2386 27.4308 14.2386 26.1023C14.2386 24.7733 13.1577 23.6923 11.8291 23.6923ZM11.8291 27.7082C10.9406 27.7082 10.2177 26.9878 10.2177 26.1022C10.2177 25.2166 10.9406 24.4958 11.8291 24.4958C12.7147 24.4958 13.4351 25.2166 13.4351 26.1022C13.4351 26.9878 12.7147 27.7082 11.8291 27.7082Z" fill="#1A2E35"/>
<path d="M18.9658 23.6923C17.6341 23.6923 16.5508 24.7733 16.5508 26.1023C16.5508 27.4308 17.6341 28.5118 18.9658 28.5118C20.2946 28.5118 21.3755 27.4308 21.3755 26.1023C21.3756 24.7733 20.2946 23.6923 18.9658 23.6923Z" fill="#38BFF2"/>
<path d="M18.9658 23.6923C17.6341 23.6923 16.5508 24.7733 16.5508 26.1023C16.5508 27.4308 17.6341 28.5118 18.9658 28.5118C20.2946 28.5118 21.3755 27.4308 21.3755 26.1023C21.3756 24.7733 20.2946 23.6923 18.9658 23.6923ZM18.9658 27.7082C18.0773 27.7082 17.3544 26.9878 17.3544 26.1022C17.3544 25.2166 18.0773 24.4958 18.9658 24.4958C19.8514 24.4958 20.572 25.2166 20.572 26.1022C20.572 26.9878 19.8514 27.7082 18.9658 27.7082Z" fill="#1A2E35"/>
<path d="M26.1025 23.6923C24.7708 23.6923 23.6875 24.7733 23.6875 26.1023C23.6875 27.4309 24.7708 28.5118 26.1025 28.5118C27.4313 28.5118 28.5122 27.4308 28.5122 26.1023C28.5122 24.7733 27.4313 23.6923 26.1025 23.6923ZM26.1025 27.7082C25.214 27.7082 24.4911 26.9878 24.4911 26.1022C24.4911 25.2166 25.214 24.4958 26.1025 24.4958C26.9881 24.4958 27.7087 25.2166 27.7087 26.1022C27.7087 26.9878 26.9881 27.7082 26.1025 27.7082Z" fill="#1A2E35"/>
<path d="M35.6489 26.1023C35.6489 24.7733 34.5679 23.6923 33.2392 23.6923C31.9075 23.6923 30.8242 24.7733 30.8242 26.1023C30.8242 27.4308 31.9075 28.5118 33.2392 28.5118C34.568 28.5118 35.6489 27.4308 35.6489 26.1023ZM33.2392 27.7082C32.3507 27.7082 31.6278 26.9878 31.6278 26.1022C31.6278 25.2166 32.3507 24.4958 33.2392 24.4958C34.1248 24.4958 34.8454 25.2166 34.8454 26.1022C34.8454 26.9878 34.1248 27.7082 33.2392 27.7082Z" fill="#1A2E35"/>
<path d="M37.9818 4.32816H34.7571V2.15446C34.7571 1.9324 34.5773 1.7527 34.3554 1.7527C34.1335 1.7527 33.9536 1.9324 33.9536 2.15446V4.32816H10.1505V2.15446C10.1505 1.9324 9.9706 1.7527 9.74871 1.7527C9.52682 1.7527 9.34695 1.9324 9.34695 2.15446V4.32816H7.08164C6.01834 4.32816 5.15338 5.19329 5.15338 6.25668C5.1532 9.79069 5.15217 32.8541 5.15217 33.0047H2.56777C2.34588 33.0047 2.16602 33.1844 2.16602 33.4065C2.16602 35.1905 3.513 36.5756 5.15209 36.7691V38.3954C5.15209 39.4587 6.01722 40.3239 7.08061 40.3239H37.9818C39.0451 40.3239 39.9104 39.4588 39.9104 38.3954C39.9104 31.3094 39.9104 12.9831 39.9104 6.25668C39.9103 5.19329 39.0452 4.32816 37.9818 4.32816ZM7.08155 5.13176H9.34687V8.32013C9.34687 8.54219 9.52673 8.72189 9.74863 8.72189C9.97052 8.72189 10.1504 8.54219 10.1504 8.32013V5.13176H33.9535V8.32013C33.9535 8.54219 34.1334 8.72189 34.3553 8.72189C34.5772 8.72189 34.757 8.54219 34.757 8.32013V5.13176H37.9817C38.602 5.13176 39.1066 5.63639 39.1066 6.25668V11.5082H5.9568V6.2566C5.9568 5.6363 6.46143 5.13176 7.08155 5.13176ZM5.95569 12.312H39.1068V33.4053C39.1068 34.8314 37.9486 35.9917 36.5248 35.9924C36.5235 35.9924 36.5225 35.9917 36.5213 35.9917C35.0936 35.9917 33.9359 34.8347 33.9359 33.4064C33.9359 33.1843 33.756 33.0046 33.5341 33.0046H5.95569V12.312ZM3.00012 33.8082H33.1559C33.2565 34.6639 33.6764 35.4356 34.3306 35.9917H5.55505C4.25404 35.9917 3.18833 35.0334 3.00012 33.8082ZM39.1067 38.3954C39.1067 39.0157 38.6021 39.5203 37.9818 39.5203H7.08061C6.46031 39.5203 5.95569 39.0158 5.95569 38.3954V36.7961H36.5232C37.5583 36.7961 38.485 36.3278 39.1068 35.593V38.3954H39.1067Z" fill="#1A2E35"/>
</svg>
