<svg width="40" height="40" viewBox="0 0 40 40" fill="none" xmlns="http://www.w3.org/2000/svg">
<g clip-path="url(#clip0_22104_10374)">
<path d="M39.3819 8.07008V37.567C39.3819 38.5731 38.5696 39.3814 37.5634 39.3814H2.43766C1.43148 39.3814 0.619141 38.5731 0.619141 37.567V8.07008H39.3819Z" fill="white"/>
<path d="M39.3819 2.43711V8.07008H0.619141V2.43711C0.619141 1.43094 1.43148 0.618591 2.43766 0.618591H37.5634C38.5696 0.618591 39.3819 1.43094 39.3819 2.43711Z" fill="#38BFF2"/>
<path d="M5.5993 4.34242C5.5993 4.86734 5.17328 5.29343 4.64828 5.29343C4.12328 5.29343 3.69727 4.86742 3.69727 4.34242C3.69727 3.81742 4.12328 3.39523 4.64828 3.39523C5.17328 3.39523 5.5993 3.8175 5.5993 4.34242Z" fill="#D7E9FF"/>
<path d="M9.62078 4.34242C9.62078 4.86734 9.19477 5.29343 8.66977 5.29343C8.14477 5.29343 7.71875 4.86742 7.71875 4.34242C7.71875 3.81742 8.14477 3.39523 8.66977 3.39523C9.19477 3.39523 9.62078 3.8175 9.62078 4.34242Z" fill="#D7E9FF"/>
<path d="M13.6423 4.34242C13.6423 4.86734 13.2163 5.29343 12.6913 5.29343C12.1663 5.29343 11.7402 4.86742 11.7402 4.34242C11.7402 3.81742 12.1663 3.39523 12.6913 3.39523C13.2163 3.39523 13.6423 3.8175 13.6423 4.34242Z" fill="#D7E9FF"/>
<path d="M36.3051 4.3418C36.3051 4.86703 35.8758 5.29125 35.3505 5.29125H25.2854C24.7602 5.29125 24.3359 4.86703 24.3359 4.3418C24.3359 3.81656 24.7602 3.39742 25.2854 3.39742H35.3506C35.8758 3.39742 36.3051 3.81656 36.3051 4.3418Z" fill="#D7E9FF"/>
<path d="M37.5637 0.206169H2.43805C1.20781 0.206169 0.207031 1.20687 0.207031 2.43718V37.567C0.207031 38.7948 1.20773 39.7938 2.43805 39.7938H37.5637C38.7939 39.7938 39.7947 38.7949 39.7947 37.567C39.7947 33.1532 39.7947 7.67109 39.7947 2.43718C39.7947 1.20687 38.794 0.206169 37.5637 0.206169ZM1.0318 2.43718C1.0318 1.66179 1.66281 1.03093 2.43805 1.03093H37.5637C38.3389 1.03093 38.9699 1.66179 38.9699 2.43718V7.65765H1.0318V2.43718ZM38.9699 37.567C38.9699 38.34 38.3389 38.9691 37.5637 38.9691H2.43805C1.66281 38.9691 1.0318 38.34 1.0318 37.567V8.48242H38.9699V37.567Z" fill="#1A2E35"/>
<path d="M5.58307 24.1462C6.38323 24.1462 7.03401 24.79 7.03401 25.5811V29.1787C7.03401 30.4333 8.04761 31.4541 9.29323 31.4541C9.5212 31.4541 9.70557 31.2695 9.70557 31.0418C9.70557 30.8141 9.52112 30.6295 9.29323 30.6295C8.50229 30.6295 7.85878 29.9787 7.85878 29.1787V25.5811C7.85878 24.8121 7.46979 24.1316 6.87698 23.7232C7.4605 23.3088 7.84268 22.6302 7.84268 21.8708V18.273C7.84268 17.473 8.4862 16.8222 9.27753 16.8222C9.5055 16.8222 9.68987 16.6376 9.68987 16.4098C9.68987 16.1821 9.50542 15.9975 9.27753 15.9975C8.03159 15.9975 7.01792 17.0184 7.01792 18.273V21.8708C7.01792 22.658 6.3712 23.3088 5.57667 23.3216C5.03479 23.3302 5.04221 24.1462 5.58307 24.1462Z" fill="#1A2E35"/>
<path d="M32.1417 25.5811V29.1787C32.1417 29.9787 31.4982 30.6294 30.7073 30.6294C30.4793 30.6294 30.2949 30.8141 30.2949 31.0418C30.2949 31.2695 30.4794 31.4541 30.7073 31.4541C31.9528 31.4541 32.9665 30.4333 32.9665 29.1787V25.5811C32.9665 24.79 33.6173 24.1462 34.4174 24.1462C34.9589 24.1462 34.965 23.3302 34.4238 23.3215C33.6293 23.3088 32.9826 22.658 32.9826 21.8707V18.2729C32.9826 17.0183 31.969 15.9974 30.723 15.9974C30.495 15.9974 30.3106 16.182 30.3106 16.4098C30.3106 16.6375 30.4951 16.8221 30.723 16.8221C31.5143 16.8221 32.1578 17.4729 32.1578 18.2729V21.8707C32.1578 22.6302 32.54 23.3087 33.1235 23.7231C32.5308 24.1316 32.1417 24.8121 32.1417 25.5811Z" fill="#1A2E35"/>
<path d="M17.2326 30.8948C17.445 30.9773 17.6836 30.8712 17.7658 30.6588L23.0058 17.0901C23.088 16.8776 22.982 16.6388 22.7698 16.5569C22.5584 16.4749 22.3188 16.5806 22.2366 16.7929L16.9966 30.3616C16.9145 30.5741 17.0203 30.8129 17.2326 30.8948Z" fill="#1A2E35"/>
<path d="M28.2754 23.7321L23.5215 26.9449C23.3326 27.0726 23.2831 27.3289 23.4108 27.5176C23.5386 27.7075 23.7961 27.7549 23.983 27.6284L29.2415 24.0744C29.4847 23.9102 29.482 23.5544 29.2423 23.3915L23.9838 19.8239C23.7961 19.6962 23.5392 19.7451 23.4111 19.9337C23.2831 20.1221 23.3322 20.3787 23.5207 20.5065L28.2754 23.7321Z" fill="#1A2E35"/>
<path d="M10.7582 24.0734L15.9672 27.6273C16.1545 27.7555 16.412 27.7071 16.5402 27.5189C16.6687 27.3309 16.62 27.0743 16.4319 26.9459L11.7214 23.732L16.4327 20.5053C16.6203 20.3766 16.6682 20.1199 16.5398 19.932C16.4109 19.7441 16.1552 19.6963 15.9663 19.8247L10.7573 23.3923C10.645 23.4692 10.5781 23.5969 10.5781 23.733C10.5781 23.8691 10.6459 23.9966 10.7582 24.0734Z" fill="#1A2E35"/>
<path d="M4.64828 2.98281C3.8968 2.98281 3.28516 3.59273 3.28516 4.34234C3.28516 5.09422 3.89688 5.7057 4.64828 5.7057C5.40016 5.7057 6.01188 5.09422 6.01188 4.34234C6.0118 3.59273 5.40008 2.98281 4.64828 2.98281ZM4.64828 4.88101C4.35148 4.88101 4.10984 4.63937 4.10984 4.34242C4.10984 4.04742 4.35148 3.80765 4.64828 3.80765C4.94547 3.80765 5.18711 4.0475 5.18711 4.34242C5.18703 4.63937 4.94547 4.88101 4.64828 4.88101Z" fill="#1A2E35"/>
<path d="M8.67023 2.98281C7.91836 2.98281 7.30664 3.59273 7.30664 4.34234C7.30664 5.09422 7.91836 5.7057 8.67023 5.7057C9.42172 5.7057 10.0334 5.09422 10.0334 4.34234C10.0334 3.59273 9.42164 2.98281 8.67023 2.98281ZM8.67023 4.88101C8.37305 4.88101 8.13141 4.63937 8.13141 4.34242C8.13141 4.04742 8.37305 3.80765 8.67023 3.80765C8.96703 3.80765 9.20867 4.0475 9.20867 4.34242C9.20867 4.63937 8.96703 4.88101 8.67023 4.88101Z" fill="#1A2E35"/>
<path d="M12.6898 2.98281C11.9379 2.98281 11.3262 3.59273 11.3262 4.34234C11.3262 5.09422 11.9379 5.7057 12.6898 5.7057C13.4412 5.7057 14.0529 5.09422 14.0529 4.34234C14.0529 3.59273 13.4412 2.98281 12.6898 2.98281ZM12.6898 4.88101C12.3926 4.88101 12.1509 4.63937 12.1509 4.34242C12.1509 4.04742 12.3926 3.80765 12.6898 3.80765C12.9866 3.80765 13.2282 4.0475 13.2282 4.34242C13.2282 4.63937 12.9866 4.88101 12.6898 4.88101Z" fill="#1A2E35"/>
<path d="M35.3491 2.98508H25.2838C24.5328 2.98508 23.9219 3.59375 23.9219 4.3418C23.9219 5.09281 24.5328 5.70375 25.2838 5.70375H35.3491C36.1025 5.70375 36.7159 5.09281 36.7159 4.3418C36.7159 3.59375 36.1025 2.98508 35.3491 2.98508ZM35.3491 4.87898H25.2838C24.9874 4.87898 24.7466 4.63797 24.7466 4.3418C24.7466 4.04359 24.9827 3.80984 25.2838 3.80984H35.3491C35.6479 3.80984 35.8911 4.04844 35.8911 4.3418C35.8911 4.63797 35.6479 4.87898 35.3491 4.87898Z" fill="#1A2E35"/>
</g>
<defs>
<clipPath id="clip0_22104_10374">
<rect width="40" height="40" fill="white"/>
</clipPath>
</defs>
</svg>
