<svg width="37" height="37" viewBox="0 0 37 37" fill="none" xmlns="http://www.w3.org/2000/svg">
<path d="M24.2131 2.47938V34.5206C24.2131 35.5739 23.3592 36.4278 22.3059 36.4278H5.08497C4.03162 36.4278 3.17773 35.5739 3.17773 34.5206V2.47938C3.17773 1.42603 4.03162 0.572144 5.08497 0.572144H22.3059C23.3592 0.572216 24.2131 1.42611 24.2131 2.47938Z" fill="white"/>
<path d="M19.0023 0.572205V2.09491C19.0023 2.9376 18.3192 3.62066 17.4766 3.62066H9.91637C9.07368 3.62066 8.39062 2.93753 8.39062 2.09491V0.572205H19.0023Z" fill="#38BFF2"/>
<path d="M33.8203 12.8051V24.9579C33.8203 25.8006 33.1372 26.4836 32.2945 26.4836H13.6953V11.2793H32.2945C33.1372 11.2793 33.8203 11.9624 33.8203 12.8051Z" fill="#38BFF2"/>
<path d="M13.6953 14.3976H33.8203V18.1782H13.6953V14.3976Z" fill="#D7E9FF"/>
<path d="M8.66657 33.7578C8.45592 33.7578 8.28516 33.9284 8.28516 34.1392C8.28516 34.35 8.45592 34.5206 8.66657 34.5206H18.724C18.9347 34.5206 19.1054 34.35 19.1054 34.1392C19.1054 33.9283 18.9347 33.7578 18.724 33.7578H8.66657Z" fill="#1A2E35"/>
<path d="M16.4615 2.47792H17.1426C17.3533 2.47792 17.524 2.3073 17.524 2.09651C17.524 1.88571 17.3533 1.71509 17.1426 1.71509H16.4615C16.2508 1.71509 16.0801 1.88571 16.0801 2.09651C16.0801 2.3073 16.2508 2.47792 16.4615 2.47792Z" fill="#1A2E35"/>
<path d="M10.2486 2.47792H14.6755C14.8861 2.47792 15.0569 2.3073 15.0569 2.09651C15.0569 1.88571 14.8861 1.71509 14.6755 1.71509H10.2486C10.038 1.71509 9.86719 1.88571 9.86719 2.09651C9.86719 2.3073 10.038 2.47792 10.2486 2.47792Z" fill="#1A2E35"/>
<path d="M32.2946 10.898H24.595V2.47939C24.595 1.21734 23.5684 0.190735 22.3064 0.190735C18.5558 0.190735 8.83843 0.190735 5.08553 0.190735C3.82348 0.190735 2.79688 1.21734 2.79688 2.47939V34.5206C2.79688 35.7826 3.82348 36.8092 5.08553 36.8092H22.3063C23.5683 36.8092 24.5949 35.7826 24.5949 34.5206V26.865H32.2945C33.3462 26.865 34.2018 26.0094 34.2018 24.9578C34.2018 20.5229 34.2018 17.1726 34.2018 12.8052C34.2019 11.7536 33.3462 10.898 32.2946 10.898ZM33.4389 12.8052V14.0162H14.077V11.6609H32.2946C32.9256 11.6609 33.4389 12.1742 33.4389 12.8052ZM33.4389 17.7967H14.077V14.7791H33.4389V17.7967ZM18.6202 0.953643V2.09501C18.6202 2.72603 18.1069 3.23933 17.4759 3.23933H9.91576C9.28474 3.23933 8.77144 2.72603 8.77144 2.09501V0.953643H18.6202ZM23.8321 34.5207C23.8321 35.3621 23.1476 36.0464 22.3064 36.0464H5.08545C4.24414 36.0464 3.55971 35.3621 3.55971 34.5207V2.47939C3.55971 1.63793 4.24421 0.953643 5.08545 0.953643H8.00846V2.09501C8.00846 3.14662 8.86408 4.00224 9.91569 4.00224H17.4758C18.5274 4.00224 19.3831 3.14662 19.3831 2.09501V0.953643H22.3063C23.1476 0.953643 23.832 1.63793 23.832 2.47939V10.898H14.0769V9.1774C14.0769 8.96653 13.9061 8.79598 13.6955 8.79598C13.4848 8.79598 13.3141 8.9666 13.3141 9.1774V28.5814C13.3141 28.7923 13.4848 28.9629 13.6955 28.9629C13.9061 28.9629 14.0769 28.7922 14.0769 28.5814V26.8649H23.832V34.5207H23.8321ZM32.2946 26.1021H14.077V21.4398H26.6879C26.8985 21.4398 27.0693 21.2692 27.0693 21.0584C27.0693 20.8475 26.8985 20.677 26.6879 20.677H14.077V18.5596H33.4389V24.9578C33.4389 25.5888 32.9256 26.1021 32.2946 26.1021Z" fill="#1A2E35"/>
<path d="M26.687 23.2219H25.5943C25.3837 23.2219 25.2129 23.3925 25.2129 23.6033C25.2129 23.8142 25.3837 23.9847 25.5943 23.9847H26.687C26.8977 23.9847 27.0685 23.8141 27.0685 23.6033C27.0685 23.3925 26.8977 23.2219 26.687 23.2219Z" fill="#1A2E35"/>
<path d="M23.564 23.2219H22.4713C22.2606 23.2219 22.0898 23.3925 22.0898 23.6033C22.0898 23.8142 22.2606 23.9847 22.4713 23.9847H23.564C23.7746 23.9847 23.9454 23.8141 23.9454 23.6033C23.9454 23.3925 23.7746 23.2219 23.564 23.2219Z" fill="#1A2E35"/>
<path d="M20.4409 23.2219H19.3482C19.1376 23.2219 18.9668 23.3925 18.9668 23.6033C18.9668 23.8142 19.1376 23.9847 19.3482 23.9847H20.4409C20.6516 23.9847 20.8224 23.8141 20.8224 23.6033C20.8224 23.3925 20.6516 23.2219 20.4409 23.2219Z" fill="#1A2E35"/>
<path d="M17.3179 23.2219H16.2252C16.0145 23.2219 15.8438 23.3925 15.8438 23.6033C15.8438 23.8142 16.0145 23.9847 16.2252 23.9847H17.3179C17.5286 23.9847 17.6993 23.8141 17.6993 23.6033C17.6994 23.3925 17.5286 23.2219 17.3179 23.2219Z" fill="#1A2E35"/>
</svg>
