<svg width="43" height="38" viewBox="0 0 43 38" fill="none" xmlns="http://www.w3.org/2000/svg">
<path d="M42.5513 2.27166V24.356H0.447266V2.27166C0.447266 1.26764 1.24901 0.454437 2.2389 0.454437H40.7597C41.7496 0.454351 42.5513 1.26764 42.5513 2.27166Z" fill="white"/>
<path d="M0.447266 24.3565V28.4158C0.447266 29.4195 1.24944 30.2331 2.2389 30.2331H40.7597C41.7492 30.2331 42.5513 29.4194 42.5513 28.4158V24.3565H0.447266Z" fill="#38BFF2"/>
<path d="M16.8008 30.2331H26.1979V34.5095H16.8008V30.2331Z" fill="#D7E9FF"/>
<path d="M29.9652 35.0385L31.0852 36.1687C31.3684 36.4545 31.1688 36.9451 30.7692 36.9451H12.2301C11.8305 36.9451 11.6309 36.4545 11.9141 36.1687L13.0341 35.0385C13.3698 34.6997 13.8241 34.5095 14.2977 34.5095H28.7015C29.1752 34.5095 29.6295 34.6997 29.9652 35.0385Z" fill="#38BFF2"/>
<path d="M21.5007 28.1989C21.993 28.1989 22.3921 27.7941 22.3921 27.2948C22.3921 26.7955 21.993 26.3907 21.5007 26.3907C21.0085 26.3907 20.6094 26.7955 20.6094 27.2948C20.6094 27.7941 21.0085 28.1989 21.5007 28.1989Z" fill="#D7E9FF"/>
<path d="M43 2.2716C43 1.01909 41.9953 0 40.7604 0H2.2396C1.00473 0 0 1.01909 0 2.2716V28.4161C0 29.6686 1.00473 30.6877 2.2396 30.6877H16.3534V34.0551H14.2979C13.7017 34.0551 13.1409 34.2903 12.7189 34.7167L11.5986 35.8467C11.0334 36.4171 11.4322 37.3995 12.2302 37.3995H30.7698C31.5674 37.3995 31.967 36.4175 31.4014 35.8467L30.2811 34.7167C29.8591 34.2898 29.2983 34.0551 28.7021 34.0551H26.6466V30.6877H40.7604C41.9953 30.6877 43 29.6686 43 28.4161C43 19.1291 43 12.2269 43 2.2716ZM0.895858 2.2716C0.895858 1.52002 1.49861 0.908656 2.2396 0.908656H40.7604C41.5014 0.908656 42.1041 1.52002 42.1041 2.2716V23.9017H0.895858V2.2716ZM29.6491 35.3603C29.6495 35.3607 29.6495 35.3607 29.6495 35.3607L30.7698 36.4908H12.2302L13.3509 35.3603C13.6042 35.1048 13.9405 34.9637 14.2979 34.9637H28.7021C29.0594 34.9637 29.3958 35.1048 29.6491 35.3603ZM25.7508 34.055H17.2492V30.6876H25.7508V34.055ZM42.1041 28.4161C42.1041 29.1676 41.5014 29.779 40.7604 29.779C27.9128 29.779 15.0566 29.779 2.2396 29.779C1.49861 29.779 0.895858 29.1676 0.895858 28.4161V24.8108H42.1041V28.4161Z" fill="#1A2E35"/>
<path d="M21.4996 28.6534C22.2379 28.6534 22.839 28.0438 22.839 27.2949C22.839 26.546 22.238 25.9364 21.4996 25.9364C20.7612 25.9364 20.1602 26.5459 20.1602 27.2949C20.1602 28.0438 20.7612 28.6534 21.4996 28.6534ZM21.4996 26.845C21.7441 26.845 21.9431 27.0469 21.9431 27.2949C21.9431 27.5429 21.7441 27.7448 21.4996 27.7448C21.255 27.7448 21.056 27.543 21.056 27.2949C21.056 27.0469 21.2551 26.845 21.4996 26.845Z" fill="#1A2E35"/>
<path d="M34.5759 5.35498H4.56898C4.32136 5.35498 4.12109 5.5582 4.12109 5.80927C4.12109 6.06034 4.32144 6.26355 4.56898 6.26355H34.5759C34.8235 6.26355 35.0238 6.06034 35.0238 5.80927C35.0238 5.5582 34.8234 5.35498 34.5759 5.35498Z" fill="#1A2E35"/>
<path d="M34.5759 8.4584H4.56898C4.32136 8.4584 4.12109 8.66162 4.12109 8.91269C4.12109 9.16376 4.32144 9.36698 4.56898 9.36698H34.5759C34.8235 9.36698 35.0238 9.16376 35.0238 8.91269C35.0238 8.66162 34.8234 8.4584 34.5759 8.4584Z" fill="#1A2E35"/>
<path d="M28.3691 11.5618H4.56898C4.32136 11.5618 4.12109 11.765 4.12109 12.0161C4.12109 12.2672 4.32144 12.4704 4.56898 12.4704H28.3691C28.6167 12.4704 28.8169 12.2672 28.8169 12.0161C28.8169 11.765 28.6166 11.5618 28.3691 11.5618Z" fill="#1A2E35"/>
<path d="M22.1622 14.6653H4.56898C4.32136 14.6653 4.12109 14.8685 4.12109 15.1195C4.12109 15.3706 4.32144 15.5738 4.56898 15.5738H22.1622C22.4098 15.5738 22.6101 15.3706 22.6101 15.1195C22.6101 14.8685 22.4098 14.6653 22.1622 14.6653Z" fill="#1A2E35"/>
<path d="M15.9554 17.7687H4.56898C4.32136 17.7687 4.12109 17.9719 4.12109 18.223C4.12109 18.474 4.32144 18.6772 4.56898 18.6772H15.9554C16.203 18.6772 16.4033 18.474 16.4033 18.223C16.4033 17.9719 16.2029 17.7687 15.9554 17.7687Z" fill="#1A2E35"/>
</svg>
