<svg width="20" height="11" viewBox="0 0 20 11" fill="none" xmlns="http://www.w3.org/2000/svg">
<path fill-rule="evenodd" clip-rule="evenodd" d="M9.85008 10.9577H10.9654C10.9654 10.9577 11.3023 10.9209 11.4743 10.7358C11.6326 10.566 11.6276 10.2472 11.6276 10.2472C11.6276 10.2472 11.6058 8.75468 12.3004 8.53482C12.9851 8.31839 13.8644 9.97747 14.7964 10.6153C15.501 11.0981 16.0364 10.9923 16.0364 10.9923L18.5285 10.9577C18.5285 10.9577 19.8319 10.8776 19.2138 9.85537C19.1633 9.77169 18.8539 9.09925 17.3612 7.71729C15.7987 6.27093 16.0079 6.50486 17.89 4.00297C19.0364 2.47928 19.4946 1.54905 19.3514 1.15063C19.2148 0.771161 18.3718 0.871474 18.3718 0.871474L15.5662 0.888893C15.5662 0.888893 15.3582 0.860613 15.2039 0.952558C15.0532 1.04275 14.9561 1.25295 14.9561 1.25295C14.9561 1.25295 14.5121 2.43203 13.9198 3.43476C12.6705 5.55063 12.1709 5.66231 11.9668 5.53094C11.4918 5.22473 11.6104 4.30083 11.6104 3.64446C11.6104 1.59402 11.9222 0.739078 11.0032 0.517773C10.6982 0.444253 10.4737 0.395756 9.69376 0.387911C8.69266 0.377552 7.84532 0.390948 7.36554 0.625388C7.04637 0.781279 6.80015 1.12866 6.9501 1.14862C7.13554 1.17338 7.55552 1.26154 7.7782 1.56395C8.06572 1.95404 8.05558 2.83021 8.05558 2.83021C8.05558 2.83021 8.22074 5.24394 7.66978 5.54381C7.29157 5.74947 6.77279 5.32959 5.65895 3.41002C5.08824 2.42672 4.65734 1.33987 4.65734 1.33987C4.65734 1.33987 4.57427 1.13675 4.42606 1.02811C4.24621 0.896477 3.99492 0.854537 3.99492 0.854537L1.32878 0.871977C1.32878 0.871977 0.928533 0.8831 0.781614 1.05665C0.650907 1.21101 0.771234 1.53036 0.771234 1.53036C0.771234 1.53036 2.85854 6.40077 5.22199 8.85526C7.38911 11.1055 9.85008 10.9577 9.85008 10.9577Z" fill="white"/>
</svg>
